<svg xmlns="http://www.w3.org/2000/svg" version="1.1" xmlns:xlink="http://www.w3.org/1999/xlink" width="1000" height="1000"><metadata><rdf:RDF xmlns:rdf="http://www.w3.org/1999/02/22-rdf-syntax-ns#" xmlns:dc="http://purl.org/dc/elements/1.1/"><rdf:Description><dc:creator>RealFaviconGenerator</dc:creator><dc:source>https://realfavicongenerator.net</dc:source></rdf:Description></rdf:RDF></metadata><style>
    #light-icon {
      display: inline;
    }
    #dark-icon {
      display: none;
    }

    @media (prefers-color-scheme: dark) {
      #light-icon {
        display: none;
      }
      #dark-icon {
        display: inline;
      }
    }
  </style><g id="light-icon"><svg xmlns="http://www.w3.org/2000/svg" version="1.1" xmlns:xlink="http://www.w3.org/1999/xlink" width="1000" height="1000"><g clip-path="url(#SvgjsClipPath2268)"><rect width="1000" height="1000" fill="#ffffff"></rect><g transform="matrix(5,0,0,5,0,0)"><svg xmlns="http://www.w3.org/2000/svg" version="1.1" xmlns:xlink="http://www.w3.org/1999/xlink" viewBox="0 0 200 200" width="200" height="200"><rect width="200" height="200" fill="url('#gradient')"></rect><defs><linearGradient id="gradient" gradientTransform="rotate(45 0.5 0.5)"><stop offset="0%" stop-color="#0ccee8"></stop><stop offset="100%" stop-color="#d9e241"></stop></linearGradient><clipPath id="SvgjsClipPath2268"><rect width="1000" height="1000" x="0" y="0" rx="500" ry="500"></rect></clipPath></defs><g><g fill="#fcbe29" transform="matrix(8.181091877496671,0,0,8.181091877496671,3.298204996852519,160.58320999780443)" stroke="#0e5278" stroke-width="0.5"><path d="M10.46-10.42L10.46-10.42Q10.46-9.38 9.95-8.59Q9.43-7.80 8.54-7.32L8.54-7.32Q9.55-6.83 10.15-5.96Q10.74-5.10 10.74-3.92L10.74-3.92Q10.74-2.01 9.43-0.91Q8.12 0.20 5.81 0.20L5.81 0.20Q3.50 0.20 2.16-0.91Q0.82-2.02 0.82-3.92L0.82-3.92Q0.82-5.06 1.41-5.94Q1.99-6.82 3.07-7.32L3.07-7.32Q2.16-7.80 1.64-8.59Q1.12-9.38 1.12-10.42L1.12-10.42Q1.12-12.28 2.38-13.35Q3.64-14.42 5.78-14.42L5.78-14.42Q7.94-14.42 9.20-13.35Q10.46-12.28 10.46-10.42ZM7.44-4.18L7.44-4.18Q7.44-5.06 6.99-5.53Q6.53-6.01 5.79-6.01Q5.05-6.01 4.59-5.53Q4.13-5.06 4.13-4.18L4.13-4.18Q4.13-3.33 4.59-2.84Q5.06-2.34 5.81-2.34L5.81-2.34Q6.54-2.34 6.99-2.83Q7.44-3.32 7.44-4.18ZM5.78-11.88L5.78-11.88Q5.12-11.88 4.77-11.45Q4.42-11.02 4.42-10.24L4.42-10.24Q4.42-9.48 4.78-9.01Q5.13-8.54 5.81-8.54L5.81-8.54Q6.48-8.54 6.82-9.01Q7.16-9.48 7.16-10.24Q7.16-11.01 6.81-11.45Q6.46-11.88 5.78-11.88ZM19.05 0L16.75-3.94L15.82-3.01L15.82 0L12.53 0L12.53-15.01L15.82-15.01L15.82-7.04L16.15-7.48L18.63-10.57L22.58-10.57L18.88-6.22L22.82 0L19.05 0Z"></path></g></g></svg></g></g></svg></g><g id="dark-icon"><svg xmlns="http://www.w3.org/2000/svg" version="1.1" xmlns:xlink="http://www.w3.org/1999/xlink" width="1000" height="1000"><g clip-path="url(#SvgjsClipPath2269)"><rect width="1000" height="1000" fill="#ffffff"></rect><g transform="matrix(5,0,0,5,0,0)"><svg xmlns="http://www.w3.org/2000/svg" version="1.1" xmlns:xlink="http://www.w3.org/1999/xlink" viewBox="0 0 200 200" width="200" height="200"><rect width="200" height="200" fill="url('#gradient')"></rect><defs><linearGradient id="gradient" gradientTransform="rotate(45 0.5 0.5)"><stop offset="0%" stop-color="#0ccee8"></stop><stop offset="100%" stop-color="#d9e241"></stop></linearGradient><clipPath id="SvgjsClipPath2269"><rect width="1000" height="1000" x="0" y="0" rx="150" ry="150"></rect></clipPath></defs><g><g fill="#fcbe29" transform="matrix(8.181091877496671,0,0,8.181091877496671,3.298204996852519,160.58320999780443)" stroke="#0e5278" stroke-width="0.5"><path d="M10.46-10.42L10.46-10.42Q10.46-9.38 9.95-8.59Q9.43-7.80 8.54-7.32L8.54-7.32Q9.55-6.83 10.15-5.96Q10.74-5.10 10.74-3.92L10.74-3.92Q10.74-2.01 9.43-0.91Q8.12 0.20 5.81 0.20L5.81 0.20Q3.50 0.20 2.16-0.91Q0.82-2.02 0.82-3.92L0.82-3.92Q0.82-5.06 1.41-5.94Q1.99-6.82 3.07-7.32L3.07-7.32Q2.16-7.80 1.64-8.59Q1.12-9.38 1.12-10.42L1.12-10.42Q1.12-12.28 2.38-13.35Q3.64-14.42 5.78-14.42L5.78-14.42Q7.94-14.42 9.20-13.35Q10.46-12.28 10.46-10.42ZM7.44-4.18L7.44-4.18Q7.44-5.06 6.99-5.53Q6.53-6.01 5.79-6.01Q5.05-6.01 4.59-5.53Q4.13-5.06 4.13-4.18L4.13-4.18Q4.13-3.33 4.59-2.84Q5.06-2.34 5.81-2.34L5.81-2.34Q6.54-2.34 6.99-2.83Q7.44-3.32 7.44-4.18ZM5.78-11.88L5.78-11.88Q5.12-11.88 4.77-11.45Q4.42-11.02 4.42-10.24L4.42-10.24Q4.42-9.48 4.78-9.01Q5.13-8.54 5.81-8.54L5.81-8.54Q6.48-8.54 6.82-9.01Q7.16-9.48 7.16-10.24Q7.16-11.01 6.81-11.45Q6.46-11.88 5.78-11.88ZM19.05 0L16.75-3.94L15.82-3.01L15.82 0L12.53 0L12.53-15.01L15.82-15.01L15.82-7.04L16.15-7.48L18.63-10.57L22.58-10.57L18.88-6.22L22.82 0L19.05 0Z"></path></g></g></svg></g></g></svg></g></svg>